<svg version="1.2" xmlns="http://www.w3.org/2000/svg" viewBox="0 0 306 88" width="600" height="173">
	<title>2-svg</title>
	<defs>
		<clipPath clipPathUnits="userSpaceOnUse" id="cp1">
			<path d="m32 65h47v20.32h-47z"/>
		</clipPath>
		<clipPath clipPathUnits="userSpaceOnUse" id="cp2">
			<path d="m83 25h8v9h-8z"/>
		</clipPath>
	</defs>
	<style>
		.s0 { fill: #ff914d } 
		.s1 { fill: #ffffff } 
	</style>
	<path id="Layer" class="s0" d="m6.5 44.5c11.5-10.7 5.9-17.9 9.6-26.4 5.1-11.3 26.8-22 47.7-6.9h-1.6c-3.4 0-6.2 2.8-6.2 6.2v4.6l-6.4 5.2q-0.2 0-0.4 0h-8.8q-0.1 0-0.2 0-0.1 0-0.2 0c-14.4 0.5-8.1 27.8-27 24.3-3.1-1.9-10.5-3.3-6.5-7z"/>
	<g id="Clip-Path" clip-path="url(#cp1)">
		<g id="Layer">
			<path id="Layer" class="s0" d="m62.3 66.7h6.1c1.1 0 2-0.3 2.9-0.7q0.5 1 0.8 1.9c2.5 6.1 6.5 17.6 6.5 17.6h-38.8c0 0-2.2-6.4-7.5-7.7 7.4 1.5 8.9-11.5 30-11.1z"/>
		</g>
	</g>
	<path id="Layer" class="s1" d="m75.8 39.9c-0.6 0-1-0.5-1-1v-2.3c0-0.6 0.4-1 1-1h2.3c0.5 0 0.9 0.4 0.9 1v2.3c0 0.5-0.4 1-0.9 1z"/>
	<path id="Layer" class="s1" d="m79.6 20.5h-3.5c-0.8 0-1.4-0.6-1.4-1.4v-3.5c0-0.8 0.6-1.4 1.4-1.4h3.5c0.8 0 1.4 0.6 1.4 1.4v3.5c0 0.8-0.6 1.4-1.4 1.4z"/>
	<g id="Clip-Path" clip-path="url(#cp2)">
		<g id="Layer">
			<path id="Layer" class="s1" d="m85.4 33.2c-0.9 0-1.7-0.7-1.7-1.7v-4.1c0-0.9 0.8-1.7 1.7-1.7h4.1c1 0 1.7 0.8 1.7 1.7v4.1c0 1-0.7 1.7-1.7 1.7z"/>
		</g>
	</g>
	<path id="Layer" class="s1" d="m85 39.8h3.8c0.9 0 1.6 0.7 1.6 1.6v3.9c0 0.8-0.7 1.6-1.6 1.6h-3.8c-0.9 0-1.6-0.8-1.6-1.6v-3.9c0-0.9 0.7-1.6 1.6-1.6z"/>
	<path id="Layer" class="s1" d="m77.2 56.4h3.1c0.7 0 1.3 0.6 1.3 1.3v3c0 0.7-0.6 1.3-1.3 1.3h-3.1c-0.7 0-1.2-0.6-1.2-1.3v-3c0-0.7 0.5-1.3 1.2-1.3z"/>
	<path id="Layer" class="s1" d="m50.6 46.7c-0.5 0.2-0.9 0.3-1.4 0.3h-8.8c-2 0-3.6-1.7-3.6-3.7v-8.7c0-2.1 1.6-3.7 3.6-3.7h8.8q0.7 0 1.4 0.3l9.1-7.4q0-0.1 0-0.2v-6.2c0-1.4 1.1-2.5 2.5-2.5h6.2c1.4 0 2.6 1.1 2.6 2.5v6.2c0 1.4-1.2 2.6-2.6 2.6h-6.2q-0.3-0.1-0.6-0.1l-9 7.3c0.1 0.3 0.2 0.8 0.2 1.2v8.8q0 0.6-0.2 1.2l9 7.2q0.3-0.1 0.7-0.1h6.1c1.4 0 2.6 1.2 2.6 2.6v6.2c0 1.4-1.2 2.5-2.6 2.5h-6.1c-1.4 0-2.6-1.1-2.6-2.5v-6.2q0-0.1 0-0.2z"/>
	<path id="Layer" class="s1" d="m68 43.3q-0.4 0.2-0.8 0.2h-4.9c-1.2 0-2.1-1-2.1-2.1v-4.9c0-1.2 0.9-2.1 2.1-2.1h4.9q0.4 0 0.8 0.1l5.2-4.1q0-0.1 0-0.2v-3.4c0-0.8 0.6-1.5 1.4-1.5h3.5c0.8 0 1.4 0.7 1.4 1.5v3.4c0 0.8-0.6 1.5-1.4 1.5h-3.5q-0.2 0-0.4-0.1l-5.1 4.2q0.2 0.3 0.2 0.6v5q0 0.3-0.2 0.7l5.1 4.1q0.2-0.1 0.4-0.1h3.5c0.8 0 1.4 0.7 1.4 1.5v3.5c0 0.8-0.6 1.4-1.4 1.4h-3.5c-0.8 0-1.5-0.6-1.5-1.4v-3.5q0-0.1 0-0.1z"/>
	<path id="Layer" class="s1" d="m10.4 62.9c0.1-1.7 2.8-1.9 3.4-2.1 0.6-0.2-4.6-1.2-3.5-3.3 0.8-1.5 1.8-2.8 2.3-4.2h0.1c1.2 0.3 2.4 0.4 3.5 0.4 4 0 7.2-1.6 9.8-4.7 2-2.6 3.4-6 4.6-9.2 0.9-2.2 1.7-4.1 2.6-5.7q0 0.2-0.1 0.4v8.8c0 4 3.2 7.2 7.1 7.3q0.1 0 0.2 0h8.8q0.2 0 0.4 0l6.5 5.3v4.6c0 1.7 0.7 3.3 1.9 4.4-10.5 0.9-15.7 5.2-19.3 8.2-2.3 1.9-3.6 3-5.2 3q-0.4 0-0.8-0.1c-3.5-0.3-4.9 0.5-8.8 1.8-5.2 1.8-7.5 1.1-9 0.1-1.1-0.7-2.1-2-1.9-4.2q0.1-0.4 0.1-0.8c0.6-6.4-2.9-7.6-2.7-10z"/>
	<g id="Layer">
		<g id="Layer">
			<g id="Layer">
				<path id="Layer" class="s1" d="m111.1 31.3q0-2.7 1.3-4.2 1.3-1.5 4-1.5 2.6 0 3.9 1.5 1.4 1.5 1.4 4.2v0.8h-3.4v-1q0-1.2-0.5-1.7-0.5-0.5-1.3-0.5-0.9 0-1.3 0.5-0.5 0.5-0.5 1.7 0 1.2 0.5 2.1 0.5 0.9 1.3 1.7 0.8 0.8 1.7 1.6 0.9 0.8 1.7 1.7 0.8 0.9 1.3 2.2 0.5 1.2 0.5 2.8 0 2.8-1.4 4.2-1.3 1.5-3.9 1.5-2.7 0-4-1.5-1.4-1.4-1.4-4.2v-1.4h3.4v1.6q0 1.3 0.5 1.7 0.5 0.5 1.3 0.5 0.9 0 1.4-0.5 0.5-0.4 0.5-1.7 0-1.2-0.5-2.1-0.5-0.8-1.3-1.6-0.8-0.8-1.7-1.6-0.9-0.8-1.7-1.8-0.8-0.9-1.3-2.1-0.5-1.2-0.5-2.9z"/>
			</g>
		</g>
	</g>
	<g id="Layer">
		<g id="Layer">
			<g id="Layer">
				<path id="Layer" fill-rule="evenodd" class="s1" d="m138.6 48.7h-3.6l-0.7-4.2h-4.3l-0.7 4.2h-3.2l3.6-22.8h5.2zm-8.1-7.3h3.4l-1.7-11.5z"/>
			</g>
		</g>
	</g>
	<g id="Layer">
		<g id="Layer">
			<g id="Layer">
				<path id="Layer" class="s1" d="m151.4 36.5l-1.3 12.2h-4.9l-2.5-22.8h3.5l1.9 17.9 1.7-17.9h3.5l1.8 18.1 1.8-18.1h3.1l-2.5 22.8h-4.8z"/>
			</g>
		</g>
	</g>
	<g id="Layer">
		<g id="Layer">
			<g id="Layer">
				<path id="Layer" class="s1" d="m168.4 41.1l-4.5-15.2h3.8l2.7 10.4 2.7-10.4h3.4l-4.5 15.2v7.6h-3.6z"/>
			</g>
		</g>
	</g>
	<g id="Layer">
		<g id="Layer">
			<g id="Layer">
				<path id="Layer" class="s1" d="m184.8 35.5h4.9v3.2h-4.9v6.7h6.2v3.3h-9.8v-22.8h9.8v3.2h-6.2z"/>
			</g>
		</g>
	</g>
	<g id="Layer">
		<g id="Layer">
			<g id="Layer">
				<path id="Layer" fill-rule="evenodd" class="s1" d="m204 48.7q-0.1-0.3-0.2-0.5 0-0.2-0.1-0.4 0-0.3 0-0.8-0.1-0.4-0.1-1.1v-3.6q0-1.6-0.5-2.3-0.6-0.6-1.8-0.6h-1.2v9.3h-3.6v-22.8h5.4q2.8 0 4 1.3 1.3 1.3 1.3 3.9v1.8q0 3.5-2.4 4.6 1.4 0.6 1.9 1.8 0.5 1.3 0.5 3.1v3.5q0 0.8 0.1 1.5 0 0.6 0.3 1.3zm-3.9-19.6v7h1.4q1 0 1.6-0.5 0.5-0.5 0.5-1.9v-2.2q0-1.3-0.4-1.8-0.4-0.6-1.4-0.6z"/>
			</g>
		</g>
	</g>
	<g id="Layer">
		<g id="Layer">
			<g id="Layer">
			</g>
		</g>
	</g>
	<g id="Layer">
		<g id="Layer">
			<g id="Layer">
				<path id="Layer" fill-rule="evenodd" class="s1" d="m221.1 25.9h5.7q2.7 0 4 1.4 1.3 1.4 1.3 4.2v11.5q0 2.8-1.3 4.2-1.3 1.5-4 1.5h-5.7zm3.6 3.2v16.3h2q0.9 0 1.3-0.5 0.5-0.5 0.5-1.7v-11.9q0-1.2-0.5-1.7-0.4-0.5-1.3-0.5z"/>
			</g>
		</g>
	</g>
	<g id="Layer">
		<g id="Layer">
			<g id="Layer">
				<path id="Layer" class="s1" d="m237.6 25.9h3.6v22.8h-3.6z"/>
			</g>
		</g>
	</g>
	<g id="Layer">
		<g id="Layer">
			<g id="Layer">
				<path id="Layer" class="s1" d="m247.1 25.9h3.6v19.5h5.9v3.3h-9.5z"/>
			</g>
		</g>
	</g>
	<g id="Layer">
		<g id="Layer">
			<g id="Layer">
				<path id="Layer" class="s1" d="m261.4 25.9h3.6v19.5h5.9v3.3h-9.5z"/>
			</g>
		</g>
	</g>
	<g id="Layer">
		<g id="Layer">
			<g id="Layer">
				<path id="Layer" fill-rule="evenodd" class="s1" d="m275.4 31.3q0-2.7 1.4-4.2 1.4-1.5 4-1.5 2.7 0 4.1 1.5 1.4 1.5 1.4 4.2v11.9q0 2.8-1.4 4.2-1.4 1.5-4.1 1.5-2.6 0-4-1.5-1.4-1.4-1.4-4.2zm3.6 12.1q0 1.2 0.5 1.7 0.5 0.5 1.3 0.5 0.9 0 1.4-0.5 0.5-0.5 0.5-1.7v-12.3q0-1.3-0.5-1.8-0.5-0.5-1.4-0.5-0.8 0-1.3 0.5-0.5 0.5-0.5 1.8z"/>
			</g>
		</g>
	</g>
	<g id="Layer">
		<g id="Layer">
			<g id="Layer">
				<path id="Layer" class="s1" d="m295 32.1v16.6h-3.2v-22.8h4.5l3.7 13.6v-13.6h3.2v22.8h-3.7z"/>
			</g>
		</g>
	</g>
	<g id="Layer">
		<g id="Layer">
			<g id="Layer">
				<path id="Layer" class="s1" d="m130.9 56q1.2 0 1.8 0.7 0.6 0.7 0.6 2v0.3h-1.2v-0.4q0-0.7-0.3-1.1-0.3-0.4-0.9-0.4-0.7 0-1 0.4-0.3 0.4-0.3 1.1 0 0.6 0.3 1.1 0.3 0.4 0.7 0.8 0.4 0.4 0.9 0.8 0.5 0.3 0.9 0.8 0.4 0.4 0.6 1 0.3 0.5 0.3 1.3 0 1.2-0.6 2-0.6 0.7-1.9 0.7-1.2 0-1.8-0.7-0.6-0.8-0.6-2v-0.6h1.1v0.6q0 0.8 0.3 1.2 0.4 0.4 1 0.4 0.7 0 1-0.4 0.3-0.4 0.3-1.2 0-0.6-0.3-1-0.3-0.5-0.7-0.8-0.4-0.4-0.8-0.8-0.5-0.4-0.9-0.8-0.4-0.4-0.7-1-0.3-0.5-0.3-1.3 0-1.3 0.6-2 0.6-0.7 1.9-0.7z"/>
			</g>
		</g>
	</g>
	<g id="Layer">
		<g id="Layer">
			<g id="Layer">
				<path id="Layer" fill-rule="evenodd" class="s1" d="m137.4 58.7q0-1.3 0.6-2 0.6-0.7 1.9-0.7 1.3 0 1.9 0.7 0.6 0.7 0.6 2v5.7q0 1.2-0.6 2-0.6 0.7-1.9 0.7-1.3 0-1.9-0.7-0.6-0.8-0.6-2zm1.2 5.7q0 0.7 0.3 1.2 0.4 0.4 1 0.4 0.7 0 1-0.4 0.3-0.5 0.3-1.2v-5.8q0-0.7-0.3-1.2-0.3-0.4-1-0.4-0.6 0-1 0.4-0.3 0.5-0.3 1.2z"/>
			</g>
		</g>
	</g>
	<g id="Layer">
		<g id="Layer">
			<g id="Layer">
				<path id="Layer" class="s1" d="m150.4 61.2v1.1h-2.5v4.7h-1.2v-10.9h4.3v1.1h-3.1v4z"/>
			</g>
		</g>
	</g>
	<g id="Layer">
		<g id="Layer">
			<g id="Layer">
				<path id="Layer" class="s1" d="m156.7 67v-9.8h-2v-1.1h5.3v1.1h-2v9.8z"/>
			</g>
		</g>
	</g>
	<g id="Layer">
		<g id="Layer">
			<g id="Layer">
				<path id="Layer" class="s1" d="m166.8 67h-1.6l-1.5-10.9h1.2l1.2 9.3 1.3-9.3h1.2l1.2 9.3 1.2-9.3h1.1l-1.5 10.9h-1.6l-1.1-7.4z"/>
			</g>
		</g>
	</g>
	<g id="Layer">
		<g id="Layer">
			<g id="Layer">
				<path id="Layer" fill-rule="evenodd" class="s1" d="m177.4 64.8l-0.4 2.2h-1.1l2.1-10.9h1.7l2.1 10.9h-1.2l-0.4-2.2zm0.1-1h2.5l-1.3-6.4z"/>
			</g>
		</g>
	</g>
	<g id="Layer">
		<g id="Layer">
			<g id="Layer">
				<path id="Layer" fill-rule="evenodd" class="s1" d="m188.3 56.1q1.3 0 1.9 0.6 0.6 0.7 0.6 1.9v0.9q0 0.9-0.4 1.4-0.3 0.6-1 0.8 0.8 0.2 1.1 0.8 0.3 0.6 0.3 1.5v1.7q0 0.4 0 0.7 0 0.3 0.2 0.6h-1.2q-0.1-0.2-0.2-0.5 0-0.3 0-0.8v-1.7q0-1-0.5-1.3-0.4-0.4-1.1-0.4h-0.9v4.7h-1.2v-10.9zm-0.3 5.1q0.7 0 1.1-0.3 0.4-0.3 0.4-1.2v-1q0-0.8-0.3-1.1-0.3-0.4-0.9-0.4h-1.2v4z"/>
			</g>
		</g>
	</g>
	<g id="Layer">
		<g id="Layer">
			<g id="Layer">
				<path id="Layer" class="s1" d="m199.1 60.9v1.1h-2.7v3.9h3.3v1.1h-4.5v-10.9h4.5v1.1h-3.3v3.7z"/>
			</g>
		</g>
	</g>
	<g id="Layer">
		<g id="Layer">
			<g id="Layer">
			</g>
		</g>
	</g>
	<g id="Layer">
		<g id="Layer">
			<g id="Layer">
				<path id="Layer" fill-rule="evenodd" class="s1" d="m212 56.1q1.3 0 1.9 0.7 0.6 0.7 0.6 2v5.5q0 1.3-0.6 2-0.6 0.7-1.9 0.7h-2.5v-10.9zm-0.1 9.8q0.7 0 1-0.4 0.3-0.4 0.3-1.1v-5.7q0-0.7-0.3-1.1-0.3-0.4-1-0.4h-1.3v8.7z"/>
			</g>
		</g>
	</g>
	<g id="Layer">
		<g id="Layer">
			<g id="Layer">
				<path id="Layer" class="s1" d="m222.7 60.9v1.1h-2.7v3.9h3.3v1.1h-4.5v-10.9h4.5v1.1h-3.3v3.7z"/>
			</g>
		</g>
	</g>
	<g id="Layer">
		<g id="Layer">
			<g id="Layer">
				<path id="Layer" class="s1" d="m228.4 56.1l1.8 9.5 1.8-9.5h1.1l-2 10.9h-1.8l-2.1-10.9z"/>
			</g>
		</g>
	</g>
	<g id="Layer">
		<g id="Layer">
			<g id="Layer">
				<path id="Layer" class="s1" d="m241.1 60.9v1.1h-2.7v3.9h3.3v1.1h-4.5v-10.9h4.5v1.1h-3.3v3.7z"/>
			</g>
		</g>
	</g>
	<g id="Layer">
		<g id="Layer">
			<g id="Layer">
				<path id="Layer" class="s1" d="m245.9 67v-10.9h1.2v9.8h3.2v1.1z"/>
			</g>
		</g>
	</g>
	<g id="Layer">
		<g id="Layer">
			<g id="Layer">
				<path id="Layer" fill-rule="evenodd" class="s1" d="m254.2 58.7q0-1.3 0.6-2 0.7-0.7 1.9-0.7 1.3 0 1.9 0.7 0.6 0.7 0.6 2v5.7q0 1.2-0.6 2-0.6 0.7-1.9 0.7-1.2 0-1.9-0.7-0.6-0.8-0.6-2zm1.2 5.7q0 0.7 0.3 1.2 0.4 0.4 1 0.4 0.7 0 1-0.4 0.3-0.5 0.3-1.2v-5.8q0-0.7-0.3-1.2-0.3-0.4-1-0.4-0.6 0-1 0.4-0.3 0.5-0.3 1.2z"/>
			</g>
		</g>
	</g>
	<g id="Layer">
		<g id="Layer">
			<g id="Layer">
				<path id="Layer" fill-rule="evenodd" class="s1" d="m265.9 56.1q1.3 0 1.9 0.7 0.6 0.7 0.6 1.9v1.4q0 1.3-0.7 1.9-0.6 0.7-1.9 0.7h-1.1v4.3h-1.2v-10.9zm-0.1 5.5q0.7 0 1-0.3 0.4-0.4 0.4-1.2v-1.4q0-0.8-0.3-1.1-0.3-0.4-1-0.4h-1.2v4.4z"/>
			</g>
		</g>
	</g>
	<g id="Layer">
		<g id="Layer">
			<g id="Layer">
				<path id="Layer" class="s1" d="m276.4 60.9v1.1h-2.7v3.9h3.3v1.1h-4.5v-10.9h4.5v1.1h-3.3v3.7z"/>
			</g>
		</g>
	</g>
	<g id="Layer">
		<g id="Layer">
			<g id="Layer">
				<path id="Layer" fill-rule="evenodd" class="s1" d="m283.7 56.1q1.3 0 1.8 0.6 0.6 0.7 0.6 1.9v0.9q0 0.9-0.3 1.4-0.3 0.6-1 0.8 0.7 0.2 1 0.8 0.3 0.6 0.3 1.5v1.7q0 0.4 0.1 0.7 0 0.3 0.1 0.6h-1.2q-0.1-0.2-0.1-0.5-0.1-0.3-0.1-0.8v-1.7q0-1-0.4-1.3-0.4-0.4-1.2-0.4h-0.8v4.7h-1.3v-10.9zm-0.3 5.1q0.8 0 1.2-0.3 0.4-0.3 0.4-1.2v-1q0-0.8-0.3-1.1-0.3-0.4-1-0.4h-1.2v4z"/>
			</g>
		</g>
	</g>
</svg>